PathFileType	4	(X/Y/Z)	/Users/itak/Documents/Research/Walk-IL/dataset/trc/00200_00008.trc
DataRate	CameraRate	NumFrames	NumMarkers	Units	OrigDataRate	OrigDataStartFrame	OrigNumFrames
100.000000	100.000000	4	53	mm	100.000000	275	550
Frame#	Time	RPSI			LPSI			L3			STRN			T10			C7			CLAV			RBAK			LBAK			LSHO			LUPA			LAEL			LAOL			LWTS			LWPS			LFRA			LIFD			LHPS			LHTS			RSHO			RUPA			RAEL			RAOL			RWTS			RWPS			RFRA			RIFD			RHTS			RHPS			RBHD			LFHD			RFHD			LBHD			LHIP			RHIP			RASI			LASI			LKNE			LTHI			LANK			LTIP			LTOE			LMT1			LMT5			LHEE			RKNE			RTHI			RANK			RTIP			RTOE			RMT1			RMT5			RHEE			
		X1	Y1	Z1	X2	Y2	Z2	X3	Y3	Z3	X4	Y4	Z4	X5	Y5	Z5	X6	Y6	Z6	X7	Y7	Z7	X8	Y8	Z8	X9	Y9	Z9	X10	Y10	Z10	X11	Y11	Z11	X12	Y12	Z12	X13	Y13	Z13	X14	Y14	Z14	X15	Y15	Z15	X16	Y16	Z16	X17	Y17	Z17	X18	Y18	Z18	X19	Y19	Z19	X20	Y20	Z20	X21	Y21	Z21	X22	Y22	Z22	X23	Y23	Z23	X24	Y24	Z24	X25	Y25	Z25	X26	Y26	Z26	X27	Y27	Z27	X28	Y28	Z28	X29	Y29	Z29	X30	Y30	Z30	X31	Y31	Z31	X32	Y32	Z32	X33	Y33	Z33	X34	Y34	Z34	X35	Y35	Z35	X36	Y36	Z36	X37	Y37	Z37	X38	Y38	Z38	X39	Y39	Z39	X40	Y40	Z40	X41	Y41	Z41	X42	Y42	Z42	X43	Y43	Z43	X44	Y44	Z44	X45	Y45	Z45	X46	Y46	Z46	X47	Y47	Z47	X48	Y48	Z48	X49	Y49	Z49	X50	Y50	Z50	X51	Y51	Z51	X52	Y52	Z52	X53	Y53	Z53	

276	2.75	-647.5796508789062	1048.712158203125	-332.2041015625	-567.992431640625	1055.763427734375	-428.0252685546875	-612.259765625	1090.387329101562	-376.5279235839844	-406.9388122558594	1300.639038085938	-213.8388061523438	-633.7904052734375	1247.46728515625	-401.7226257324219	-576.0487670898438	1516.355224609375	-371.8212280273438	-421.9933166503906	1413.95263671875	-240.8759155273438	-695.5537719726562	1342.232543945312	-328.0584716796875	-519.040283203125	1491.491333007812	-453.1909790039062	-410.1915588378906	1479.177124023438	-467.9855346679688	-399.1424865722656	1350.4951171875	-553.1729736328125	-407.0775146484375	1134.549438476562	-571.7869873046875	-486.6989440917969	1125.375	-532.98388671875	-365.8701171875	883.5664672851562	-522.0025634765625	-416.8232727050781	882.9651489257812	-599.8406982421875	-405.1944580078125	1025.213256835938	-590.330322265625	-403.9502258300781	700.2735595703125	-519.8365478515625	-414.1034851074219	810.0392456054688	-595.890625	-362.1417541503906	803.6119995117188	-544.779296875	-638.9075317382812	1496.146240234375	-191.1826324462891	-699.78662109375	1431.962524414062	-152.2249755859375	-762.25927734375	1149.662719726562	-120.9987106323242	-695.0863647460938	1135.272338867188	-191.9957122802734	-669.308837890625	916.6931762695312	-31.44222450256348	-755.5601806640625	907.071044921875	-49.45904922485352	-762.7137451171875	1078.5546875	-88.52549743652344	-659.3692016601562	724.1018676757812	-34.74431228637695	-663.7256469726562	822.251708984375	-6.450270652770996	-740.3359985351562	823.5851440429688	-29.25371742248535	-593.8613891601562	1669.026123046875	-278.7076721191406	-389.4352416992188	1739.6396484375	-275.3793334960938	-469.0693969726562	1728.41650390625	-173.615966796875	-517.6395874023438	1688.067260742188	-390.7992553710938	-412.1830749511719	1002.829040527344	-452.6868286132812	-613.5828247070312	997.5357055664062	-138.365966796875	-517.0567626953125	1033.849609375	-125.9288711547852	-356.3598022460938	1035.94091796875	-326.6019287109375	-354.6255798339844	502.9037780761719	-356.0929260253906	-354.346923828125	646.0220947265625	-394.401123046875	-423.3021545410156	36.62005615234375	-401.9912109375	-374.6703796386719	271.9028625488281	-383.2145690917969	-259.5317993164062	38.87575149536133	-252.2194671630859	-328.330810546875	39.83267211914062	-241.6722717285156	-313.861328125	31.6757640838623	-370.7653503417969	-503.8854370117188	38.62691497802734	-377.1407470703125	-553.504150390625	495.9056091308594	-103.9020462036133	-562.5498657226562	771.2354736328125	-90.72931671142578	-854.0574340820312	183.2385711669922	-353.8591918945312	-592.3861694335938	384.702392578125	-146.5505828857422	-719.5411376953125	62.21699142456055	-239.1977996826172	-712.1566772460938	81.77814483642578	-305.9747009277344	-828.5584106445312	104.567268371582	-270.7587585449219	-826.9459838867188	210.9867858886719	-428.4373168945312	
277	2.76	-640.248291015625	1049.305541992188	-330.1086730957031	-559.9970092773438	1056.150634765625	-425.3988037109375	-604.1973266601562	1090.956176757812	-374.2021484375	-400.2077331542969	1300.822265625	-209.3781890869141	-625.1809692382812	1248.4365234375	-399.6388854980469	-567.3424682617188	1517.135131835938	-368.6013488769531	-414.8527526855469	1414.249389648438	-236.2237243652344	-687.4411010742188	1343.09130859375	-326.3956298828125	-509.4162902832031	1492.356201171875	-449.4297180175781	-400.3636474609375	1479.91162109375	-462.9884338378906	-387.90625	1351.25634765625	-547.8980102539062	-394.0067443847656	1135.329711914062	-567.1231079101562	-474.6557922363281	1125.71337890625	-530.0994262695312	-352.1577453613281	884.6853637695312	-516.4745483398438	-401.5840454101562	883.6566772460938	-595.322509765625	-391.0878601074219	1025.9677734375	-585.6300048828125	-388.5545654296875	701.06787109375	-515.172119140625	-398.3211975097656	810.7567138671875	-591.339599609375	-347.23583984375	804.8638305664062	-539.2200927734375	-632.0750122070312	1496.611572265625	-188.6493682861328	-693.3387451171875	1432.343505859375	-150.4463195800781	-755.8401489257812	1149.811767578125	-119.7868728637695	-688.0678100585938	1135.63916015625	-190.2704162597656	-661.7537231445312	917.918701171875	-28.5885009765625	-747.6795654296875	907.3020629882812	-47.49986267089844	-756.1576538085938	1078.645629882812	-87.17699432373047	-649.759765625	725.5011596679688	-30.74267196655273	-655.6837768554688	823.6400756835938	-3.079813480377197	-731.8435668945312	824.114501953125	-26.75362396240234	-585.7057495117188	1669.557373046875	-275.1112060546875	-381.2536010742188	1739.991455078125	-270.140625	-461.6659851074219	1728.82470703125	-169.0255279541016	-508.4790954589844	1688.57177734375	-386.6994323730469	-404.1972351074219	1002.832336425781	-449.1287841796875	-607.1631469726562	998.7888793945312	-135.7389068603516	-510.6293334960938	1034.769653320312	-123.0252227783203	-348.7741394042969	1036.1923828125	-322.856689453125	-351.8250122070312	502.4068603515625	-355.1882629394531	-350.0188903808594	645.7569580078125	-392.4368286132812	-423.2760009765625	36.64164733886719	-401.9649353027344	-373.4601745605469	271.6927490234375	-382.9236755371094	-259.4443969726562	38.85628509521484	-252.2293853759766	-328.2613525390625	39.85550689697266	-241.6851196289062	-313.858642578125	31.5495491027832	-370.8956909179688	-503.9494323730469	38.64941787719727	-377.1041564941406	-538.4180297851562	498.4400939941406	-94.50669097900391	-553.5166625976562	773.5914916992188	-85.26811218261719	-833.1654663085938	181.7527008056641	-344.7117309570312	-575.6212158203125	386.7359313964844	-136.6428985595703	-698.85693359375	63.60539245605469	-225.4396667480469	-690.7162475585938	82.49390411376953	-292.6450805664062	-807.72607421875	105.1845245361328	-259.3834533691406	-805.7913208007812	207.7720489501953	-419.7567443847656	
278	2.77	-633.0950927734375	1049.832397460938	-327.8879089355469	-552.2462768554688	1056.470336914062	-422.6823425292969	-596.3054809570312	1091.453979492188	-371.7654724121094	-393.5613098144531	1300.997314453125	-204.9722442626953	-616.8072509765625	1249.3173828125	-397.4607238769531	-558.8287353515625	1517.819580078125	-365.3245239257812	-407.8371887207031	1414.540283203125	-231.6125335693359	-679.4931640625	1343.8837890625	-324.6124267578125	-500.0160827636719	1493.140869140625	-445.6382751464844	-390.8332824707031	1480.615600585938	-458.0208435058594	-376.9143676757812	1351.9521484375	-542.5299072265625	-380.8109436035156	1136.079833984375	-562.2041625976562	-462.3490600585938	1125.901000976562	-526.9321899414062	-338.1595458984375	885.7814331054688	-510.7411193847656	-386.0019836425781	884.3701782226562	-590.590087890625	-376.7477416992188	1026.729736328125	-580.6675415039062	-372.8652038574219	701.821533203125	-510.4164123535156	-382.1651306152344	811.509765625	-586.6116333007812	-332.0099792480469	806.1113891601562	-533.4656982421875	-625.3355102539062	1497.033447265625	-186.0679473876953	-686.9722290039062	1432.699829101562	-148.5926513671875	-749.4922485351562	1149.909545898438	-118.5637741088867	-681.1248168945312	1136.001586914062	-188.5447998046875	-654.0999755859375	919.1436767578125	-25.75263977050781	-739.689208984375	907.4797973632812	-45.50072860717773	-749.6140747070312	1078.677001953125	-85.80868530273438	-639.918701171875	726.9389038085938	-26.81814193725586	-647.3759765625	825.0548706054688	0.2565500438213348	-723.1867065429688	824.5933227539062	-24.24584579467773	-577.6539306640625	1670.071655273438	-271.4270935058594	-373.1532897949219	1740.21728515625	-264.7931823730469	-454.3471069335938	1729.0810546875	-164.3398895263672	-499.4121704101562	1689.082763671875	-382.5399475097656	-396.4538269042969	1002.736267089844	-445.6376342773438	-600.7145385742188	1000.058959960938	-133.0001373291016	-504.1587524414062	1035.67578125	-120.1567611694336	-341.2897644042969	1036.398315429688	-319.2666931152344	-349.14794921875	501.9152526855469	-354.3974304199219	-345.9054870605469	645.4620361328125	-390.6299438476562	-423.2547607421875	36.66640853881836	-401.929931640625	-372.2962646484375	271.5122680664062	-382.6830139160156	-259.3418579101562	38.84431838989258	-252.2284545898438	-328.17919921875	39.88844680786133	-241.7027740478516	-313.8697509765625	31.40750122070312	-371.04052734375	-504.026611328125	38.73120880126953	-377.0572204589844	-523.53662109375	501.1299133300781	-85.24820709228516	-544.515380859375	775.983642578125	-79.76539611816406	-811.5999755859375	179.1348114013672	-335.1171264648438	-558.7745971679688	388.7491760253906	-126.7752380371094	-677.0449829101562	64.70936584472656	-211.6121368408203	-668.2809448242188	82.74250030517578	-279.1554870605469	-786.0106811523438	104.8730316162109	-247.6864166259766	-784.076904296875	203.6131286621094	-410.5953369140625	
279	2.78	-626.0952758789062	1050.272338867188	-325.51708984375	-544.760986328125	1056.7392578125	-419.8731079101562	-588.5729370117188	1091.876098632812	-369.2016296386719	-386.9853820800781	1301.154052734375	-200.6202239990234	-608.6751708984375	1250.101440429688	-395.1925659179688	-550.4949340820312	1518.404541015625	-361.9903259277344	-400.9293823242188	1414.81298828125	-227.0457305908203	-671.7249145507812	1344.601196289062	-322.7142333984375	-490.8387145996094	1493.840698242188	-441.8195190429688	-381.595947265625	1481.288940429688	-453.0905456542969	-366.1771545410156	1352.593383789062	-537.099609375	-367.544189453125	1136.808471679688	-557.0556640625	-449.82666015625	1125.955200195312	-523.4802856445312	-323.8949890136719	886.870849609375	-504.8034973144531	-370.1276550292969	885.1087036132812	-585.624267578125	-362.2227172851562	1027.505859375	-575.4548950195312	-356.8887329101562	702.552490234375	-505.53076171875	-365.6825561523438	812.30517578125	-581.67431640625	-316.4900207519531	807.3644409179688	-527.5066528320312	-618.6734008789062	1497.400024414062	-183.4296875	-680.6697998046875	1433.015991210938	-146.6555938720703	-743.21240234375	1149.946044921875	-117.3181076049805	-674.2603759765625	1136.343627929688	-186.7998962402344	-646.3638916015625	920.3543090820312	-22.94292068481445	-731.6043701171875	907.6044311523438	-43.46123123168945	-743.0827026367188	1078.640014648438	-84.40972137451172	-629.8710327148438	728.4035034179688	-22.98164939880371	-638.8223876953125	826.4854125976562	3.550689220428467	-714.3792114257812	825.0167846679688	-21.72827529907227	-569.7113037109375	1670.570922851562	-267.66015625	-365.1366882324219	1740.317993164062	-259.3391418457031	-447.1207580566406	1729.1767578125	-159.5641326904297	-490.4553833007812	1689.602783203125	-378.3171081542969	-388.9327087402344	1002.558776855469	-442.1960754394531	-594.2401733398438	1001.294738769531	-130.1423187255859	-497.6357116699219	1036.524658203125	-117.2799453735352	-333.8960571289062	1036.544067382812	-315.8091735839844	-346.5714721679688	501.4339904785156	-353.6961975097656	-341.9696044921875	645.1463012695312	-388.9502563476562	-423.2391967773438	36.69336700439453	-401.8891296386719	-371.1661376953125	271.3561706542969	-382.4747314453125	-259.226806640625	38.83990859985352	-252.2127227783203	-328.0853881835938	39.93015289306641	-241.7253723144531	-313.8908996582031	31.25120735168457	-371.1979370117188	-504.1231384277344	38.87268447875977	-377.0107727050781	-508.8600769042969	503.9278869628906	-76.12532043457031	-535.5646362304688	778.3814086914062	-74.22700500488281	-789.4002075195312	175.4386138916016	-325.066650390625	-541.8763427734375	390.7129821777344	-116.9544143676758	-654.1856079101562	65.57049560546875	-197.6552276611328	-644.9566650390625	82.56853485107422	-265.468505859375	-763.4727783203125	103.7214279174805	-235.6412811279297	-761.7964477539062	198.5355072021484	-400.9530639648438	
